<svg xmlns="http://www.w3.org/2000/svg" xmlns:xlink="http://www.w3.org/1999/xlink" width="300" zoomAndPan="magnify" viewBox="0 0 75 37.5" height="150" preserveAspectRatio="xMidYMid meet" version="1.0"><defs><g/></defs><g fill="#ff914d" fill-opacity="1"><g transform="translate(12.697608, 16.190236)"><g/></g></g><g fill="#ff914d" fill-opacity="1"><g transform="translate(16.718137, 16.190236)"><g><path d="M 10.175781 -7.113281 C 10.214844 -8.804688 8.886719 -9.917969 7.195312 -9.917969 C 4.28125 -9.917969 2.75 -7.8125 2.75 -4.871094 C 2.75 -4.710938 2.886719 -4.589844 3.035156 -4.589844 C 3.167969 -4.589844 3.328125 -4.683594 3.328125 -4.871094 C 3.410156 -7.625 4.617188 -9.355469 7.179688 -9.355469 C 8.550781 -9.355469 9.652344 -8.46875 9.609375 -7.140625 C 9.609375 -6.320312 9.074219 -5.421875 8.242188 -4.980469 C 7.8125 -5.273438 7.101562 -5.449219 6.605469 -5.449219 C 6.175781 -5.449219 5.90625 -5.222656 5.90625 -4.792969 C 5.90625 -4.214844 6.390625 -4.109375 6.992188 -4.109375 C 7.316406 -4.109375 7.878906 -4.214844 8.175781 -4.335938 C 8.75 -3.878906 9.0625 -3.058594 9.0625 -2.28125 C 9.0625 -0.871094 8.175781 0.269531 6.683594 0.269531 C 5.785156 0.269531 4.925781 -0.0820312 4.925781 -0.914062 C 4.925781 -1.382812 5.300781 -1.8125 5.757812 -1.8125 C 6.066406 -1.8125 6.375 -1.542969 6.523438 -1.113281 C 6.5625 -0.992188 6.671875 -0.925781 6.792969 -0.925781 C 7.007812 -0.925781 7.128906 -1.128906 7.058594 -1.300781 C 6.820312 -1.933594 6.363281 -2.375 5.746094 -2.375 C 5.035156 -2.375 4.363281 -1.757812 4.363281 -0.914062 C 4.363281 0.1875 5.34375 0.832031 6.683594 0.832031 C 8.429688 0.832031 9.636719 -0.523438 9.636719 -2.253906 C 9.636719 -2.992188 9.421875 -3.746094 8.964844 -4.320312 L 8.726562 -4.605469 C 9.570312 -5.167969 10.175781 -6.148438 10.175781 -7.113281 Z M 6.589844 -7.8125 C 6.738281 -8.132812 7.101562 -8.484375 7.410156 -8.535156 C 7.515625 -8.5625 7.636719 -8.65625 7.636719 -8.859375 C 7.609375 -9.007812 7.488281 -9.101562 7.355469 -9.101562 C 6.925781 -9.101562 6.363281 -8.605469 6.082031 -8.082031 C 5.703125 -7.34375 5.394531 -6.347656 5.085938 -5.316406 C 4.457031 -3.222656 3.71875 -0.5625 1.8125 -0.5625 C 1.058594 -0.5625 0.429688 -0.992188 0.429688 -1.824219 C 0.429688 -2.617188 1.085938 -3.4375 1.8125 -3.4375 C 1.894531 -3.4375 1.960938 -3.4375 2.027344 -3.410156 C 2.214844 -3.355469 2.390625 -3.503906 2.390625 -3.691406 C 2.390625 -3.8125 2.308594 -3.90625 2.1875 -3.960938 C 2.054688 -4.011719 1.933594 -4.011719 1.796875 -4.011719 C 0.792969 -4.011719 -0.132812 -2.964844 -0.132812 -1.796875 C -0.132812 -0.710938 0.726562 0 1.824219 0 C 4.066406 0 4.859375 -2.632812 5.625 -5.15625 C 5.933594 -6.148438 6.226562 -7.113281 6.589844 -7.8125 Z M 7.058594 -4.671875 C 6.859375 -4.671875 6.46875 -4.671875 6.46875 -4.777344 C 6.46875 -4.871094 6.550781 -4.886719 6.65625 -4.886719 C 6.777344 -4.886719 7.34375 -4.777344 7.476562 -4.726562 C 7.34375 -4.699219 7.207031 -4.671875 7.058594 -4.671875 Z M 7.058594 -4.671875 "/></g></g></g><g fill="#ff914d" fill-opacity="1"><g transform="translate(27.366766, 16.190236)"><g><path d="M 6 -3.195312 C 5.960938 -3.207031 5.917969 -3.222656 5.878906 -3.222656 C 5.773438 -3.222656 5.664062 -3.15625 5.625 -3.046875 C 4.859375 -1.328125 4.335938 -0.5625 3.691406 -0.5625 C 3.410156 -0.5625 3.289062 -0.738281 3.289062 -1.128906 C 3.289062 -1.488281 3.597656 -2.578125 4.109375 -3.960938 C 4.308594 -4.496094 4.5625 -5.222656 4.859375 -6 C 4.925781 -6.175781 4.792969 -6.375 4.578125 -6.375 C 4.46875 -6.375 4.363281 -6.308594 4.320312 -6.203125 C 3.625 -4.296875 3.128906 -2.871094 2.65625 -1.933594 C 2.214844 -1.019531 1.664062 -0.5625 1.113281 -0.5625 C 0.632812 -0.5625 0.375 -0.84375 0.375 -1.394531 C 0.375 -1.933594 0.523438 -2.214844 1.945312 -6 C 2.011719 -6.175781 1.90625 -6.375 1.679688 -6.375 C 1.570312 -6.375 1.464844 -6.308594 1.421875 -6.203125 C 0.132812 -2.859375 -0.1875 -2.066406 -0.1875 -1.394531 C -0.1875 -0.484375 0.253906 0 1.101562 0 L 1.113281 0 C 1.71875 0 2.335938 -0.402344 2.726562 -0.953125 C 2.804688 -0.363281 3.101562 0 3.691406 0 C 4.589844 0 5.261719 -0.820312 6.132812 -2.820312 C 6.148438 -2.859375 6.160156 -2.898438 6.160156 -2.941406 C 6.160156 -3.046875 6.09375 -3.140625 6 -3.195312 Z M 6 -3.195312 "/></g></g></g><g fill="#ff914d" fill-opacity="1"><g transform="translate(32.744731, 16.190236)"><g><path d="M 6.375 -3.195312 C 6.335938 -3.207031 6.296875 -3.222656 6.269531 -3.222656 C 6.160156 -3.222656 6.054688 -3.15625 6 -3.058594 C 5.371094 -1.679688 4.726562 -0.5625 3.757812 -0.5625 C 3.449219 -0.5625 3.328125 -0.804688 3.328125 -1.128906 C 3.328125 -1.476562 3.570312 -2.269531 3.773438 -2.886719 C 3.894531 -3.261719 5.488281 -7.824219 5.625 -8.214844 C 5.679688 -8.363281 5.585938 -8.589844 5.355469 -8.589844 C 5.25 -8.589844 5.140625 -8.523438 5.101562 -8.417969 L 4.390625 -6.363281 L 4.132812 -5.664062 C 3.917969 -6.082031 3.53125 -6.347656 2.925781 -6.347656 C 1.300781 -6.347656 -0.0390625 -3.207031 -0.0390625 -1.449219 C -0.0390625 -0.644531 0.308594 0 1.058594 0 C 1.746094 0 2.296875 -0.511719 2.765625 -1.179688 C 2.765625 -0.429688 3.128906 0 3.757812 0 C 4.992188 0 5.746094 -1.140625 6.523438 -2.820312 C 6.535156 -2.859375 6.550781 -2.898438 6.550781 -2.941406 C 6.550781 -3.046875 6.484375 -3.140625 6.375 -3.195312 Z M 1.046875 -0.5625 C 0.644531 -0.5625 0.523438 -0.953125 0.523438 -1.542969 C 0.550781 -2.871094 1.691406 -5.746094 2.925781 -5.785156 C 3.449219 -5.785156 3.757812 -5.421875 3.785156 -4.804688 C 3.785156 -4.777344 3.785156 -4.75 3.773438 -4.710938 C 3.679688 -4.496094 3.582031 -4.226562 3.464844 -3.945312 C 2.925781 -2.578125 2.132812 -0.5625 1.046875 -0.5625 Z M 1.046875 -0.5625 "/></g></g></g><g fill="#ff914d" fill-opacity="1"><g transform="translate(38.511626, 16.190236)"><g><path d="M 3.71875 -4.347656 L 0.632812 -4.347656 C 0.496094 -4.347656 0.390625 -4.226562 0.390625 -4.066406 C 0.390625 -3.917969 0.496094 -3.785156 0.632812 -3.785156 L 3.71875 -3.785156 C 3.851562 -3.785156 3.960938 -3.917969 3.960938 -4.066406 C 3.960938 -4.226562 3.851562 -4.347656 3.71875 -4.347656 Z M 3.71875 -4.347656 "/></g></g></g><g fill="#ff914d" fill-opacity="1"><g transform="translate(43.473842, 16.190236)"><g><path d="M 12.226562 -9.4375 C 12.226562 -10.054688 11.382812 -10.363281 10.605469 -10.363281 C 9.785156 -10.363281 8.792969 -10.066406 8.121094 -9.503906 C 6.589844 -9.785156 4.644531 -10.535156 3.207031 -10.535156 C 1.449219 -10.535156 0.417969 -9.652344 0.417969 -8.148438 C 0.417969 -6.925781 1.273438 -6.1875 2.523438 -6.1875 C 3.007812 -6.1875 3.53125 -6.308594 4 -6.523438 C 4.109375 -6.578125 4.160156 -6.671875 4.160156 -6.777344 C 4.160156 -6.886719 4.082031 -7.058594 3.894531 -7.058594 C 3.839844 -7.058594 3.796875 -7.046875 3.757812 -7.035156 C 3.371094 -6.859375 2.941406 -6.75 2.535156 -6.75 C 1.609375 -6.75 0.992188 -7.207031 0.980469 -8.148438 C 0.980469 -9.289062 1.796875 -9.960938 3.179688 -9.960938 C 4.699219 -9.960938 6.457031 -9.273438 7.636719 -9.019531 C 7.558594 -8.898438 7.464844 -8.777344 7.394531 -8.65625 C 6.832031 -7.691406 6.363281 -6.214844 6.027344 -5.128906 C 5.085938 -2.320312 4.605469 0.28125 2.320312 0.253906 C 1.34375 0.253906 0.5625 -0.457031 0.5625 -1.597656 C 0.5625 -2.820312 1.71875 -3.878906 2.898438 -3.878906 C 3.058594 -3.878906 3.179688 -4 3.179688 -4.160156 C 3.179688 -4.320312 3.058594 -4.441406 2.898438 -4.441406 C 1.421875 -4.441406 0 -3.179688 0 -1.597656 C 0 -0.214844 0.953125 0.820312 2.320312 0.820312 C 4.699219 0.859375 5.382812 -1.046875 6.5625 -4.953125 C 6.898438 -6.011719 7.355469 -7.476562 7.878906 -8.375 C 8 -8.5625 8.132812 -8.738281 8.296875 -8.898438 C 9.140625 -8.738281 9.972656 -8.632812 10.632812 -8.632812 C 11.570312 -8.632812 12.203125 -8.832031 12.226562 -9.4375 Z M 10.632812 -9.195312 C 10.1875 -9.195312 9.570312 -9.261719 8.925781 -9.371094 C 9.382812 -9.625 10.066406 -9.796875 10.589844 -9.796875 C 10.980469 -9.796875 11.652344 -9.652344 11.652344 -9.449219 C 11.652344 -9.261719 11.261719 -9.195312 10.632812 -9.195312 Z M 10.632812 -9.195312 "/></g></g></g><g fill="#ff914d" fill-opacity="1"><g transform="translate(51.775481, 16.190236)"><g><path d="M 6.011719 -3.195312 C 5.972656 -3.207031 5.933594 -3.222656 5.894531 -3.222656 C 5.785156 -3.222656 5.691406 -3.15625 5.636719 -3.046875 L 5.625 -3.007812 C 5.179688 -2.011719 4.535156 -0.5625 3.703125 -0.5625 C 3.421875 -0.5625 3.300781 -0.726562 3.300781 -1.128906 C 3.300781 -1.71875 3.746094 -2.886719 4.226562 -4.242188 L 4.898438 -6.039062 C 4.964844 -6.203125 4.859375 -6.417969 4.644531 -6.417969 C 4.523438 -6.417969 4.417969 -6.347656 4.375 -6.242188 C 4.308594 -6.066406 4.226562 -5.867188 4.148438 -5.636719 C 3.90625 -6.121094 3.488281 -6.347656 2.925781 -6.347656 C 1.316406 -6.347656 -0.0390625 -3.207031 -0.0390625 -1.449219 C -0.0390625 -0.644531 0.308594 0 1.058594 0 C 1.636719 0 2.203125 -0.375 2.738281 -1.128906 C 2.738281 -0.46875 3.058594 0 3.703125 0 C 4.914062 0 5.636719 -1.652344 6.148438 -2.777344 L 6.160156 -2.820312 C 6.175781 -2.859375 6.1875 -2.898438 6.1875 -2.941406 C 6.1875 -3.046875 6.121094 -3.140625 6.011719 -3.195312 Z M 1.046875 -0.5625 C 0.644531 -0.5625 0.523438 -0.953125 0.523438 -1.542969 C 0.550781 -2.871094 1.691406 -5.757812 2.925781 -5.785156 C 3.410156 -5.785156 3.757812 -5.421875 3.785156 -4.804688 L 3.464844 -3.945312 C 2.925781 -2.578125 2.132812 -0.5625 1.046875 -0.5625 Z M 1.046875 -0.5625 "/></g></g></g><g fill="#ff914d" fill-opacity="1"><g transform="translate(57.180263, 16.190236)"><g><path d="M 5.730469 -3.195312 C 5.691406 -3.207031 5.652344 -3.222656 5.609375 -3.222656 C 5.371094 -3.222656 5.371094 -2.992188 5.15625 -2.589844 C 4.820312 -1.972656 4.46875 -1.421875 3.796875 -1.421875 C 3.558594 -1.421875 3.300781 -1.542969 3.15625 -1.71875 C 3.179688 -1.746094 3.195312 -1.785156 3.207031 -1.8125 C 3.730469 -2.738281 4.160156 -3.933594 4.175781 -4.847656 C 4.175781 -5.691406 3.894531 -6.347656 3.046875 -6.347656 C 2.550781 -6.347656 2.121094 -6.109375 1.746094 -5.71875 C 1.972656 -6.335938 2.082031 -6.671875 2.308594 -7.34375 L 2.605469 -8.214844 C 2.671875 -8.390625 2.535156 -8.589844 2.335938 -8.589844 C 2.214844 -8.589844 2.105469 -8.523438 2.066406 -8.402344 C 1.960938 -8.109375 1.851562 -7.757812 1.773438 -7.503906 C 1.730469 -7.371094 0.253906 -3.140625 0.175781 -2.898438 C 0.0117188 -2.457031 -0.242188 -1.785156 -0.242188 -1.179688 C -0.242188 -0.402344 0.09375 0 0.820312 0 C 1.652344 0 2.296875 -0.484375 2.84375 -1.234375 C 3.101562 -0.980469 3.4375 -0.859375 3.796875 -0.859375 C 4.65625 -0.859375 5.207031 -1.464844 5.652344 -2.335938 C 5.730469 -2.484375 5.90625 -2.832031 5.90625 -2.941406 C 5.90625 -3.046875 5.839844 -3.15625 5.730469 -3.195312 Z M 2.765625 -3.222656 C 2.644531 -3.222656 2.535156 -3.140625 2.496094 -3.007812 C 2.417969 -2.765625 2.402344 -2.5625 2.402344 -2.363281 C 2.402344 -2.121094 2.441406 -1.917969 2.511719 -1.746094 C 2.039062 -1.035156 1.464844 -0.5625 0.832031 -0.5625 C 0.46875 -0.5625 0.320312 -0.777344 0.320312 -1.207031 C 0.320312 -1.476562 0.417969 -1.839844 0.617188 -2.402344 C 1.15625 -3.757812 1.988281 -5.785156 3.074219 -5.785156 C 3.53125 -5.785156 3.597656 -5.410156 3.597656 -4.871094 C 3.597656 -4.214844 3.34375 -3.328125 2.992188 -2.632812 C 3.007812 -2.699219 3.019531 -2.777344 3.046875 -2.859375 C 3.085938 -3.046875 2.953125 -3.222656 2.765625 -3.222656 Z M 2.765625 -3.222656 "/></g></g></g><g fill="#a6a6a6" fill-opacity="1"><g transform="translate(3.294617, 25.238985)"><g><path d="M 1.390625 0 L 1.0625 0 L 1.0625 -1.234375 L 0.0625 -3.125 L 0.40625 -3.125 L 1.21875 -1.515625 L 2.03125 -3.125 L 2.390625 -3.125 L 1.390625 -1.234375 Z M 1.390625 0 "/></g></g></g><g fill="#a6a6a6" fill-opacity="1"><g transform="translate(6.556905, 25.238985)"><g><path d="M 2.671875 -0.59375 C 2.910156 -0.84375 3.03125 -1.164062 3.03125 -1.5625 C 3.03125 -1.957031 2.910156 -2.273438 2.671875 -2.515625 C 2.429688 -2.753906 2.128906 -2.875 1.765625 -2.875 C 1.398438 -2.875 1.097656 -2.753906 0.859375 -2.515625 C 0.617188 -2.273438 0.5 -1.957031 0.5 -1.5625 C 0.5 -1.164062 0.617188 -0.84375 0.859375 -0.59375 C 1.097656 -0.351562 1.398438 -0.234375 1.765625 -0.234375 C 2.128906 -0.234375 2.429688 -0.351562 2.671875 -0.59375 Z M 0.640625 -0.421875 C 0.335938 -0.722656 0.1875 -1.101562 0.1875 -1.5625 C 0.1875 -2.019531 0.335938 -2.398438 0.640625 -2.703125 C 0.941406 -3.003906 1.316406 -3.15625 1.765625 -3.15625 C 2.222656 -3.15625 2.601562 -3.003906 2.90625 -2.703125 C 3.207031 -2.398438 3.359375 -2.019531 3.359375 -1.5625 C 3.359375 -1.101562 3.207031 -0.722656 2.90625 -0.421875 C 2.601562 -0.117188 2.222656 0.03125 1.765625 0.03125 C 1.316406 0.03125 0.941406 -0.117188 0.640625 -0.421875 Z M 0.640625 -0.421875 "/></g></g></g><g fill="#a6a6a6" fill-opacity="1"><g transform="translate(10.905115, 25.238985)"><g><path d="M 0.34375 -1.046875 L 0.34375 -3.125 L 0.65625 -3.125 L 0.65625 -1.046875 C 0.65625 -0.773438 0.726562 -0.570312 0.875 -0.4375 C 1.03125 -0.300781 1.238281 -0.234375 1.5 -0.234375 C 1.757812 -0.234375 1.960938 -0.300781 2.109375 -0.4375 C 2.253906 -0.570312 2.328125 -0.773438 2.328125 -1.046875 L 2.328125 -3.125 L 2.640625 -3.125 L 2.640625 -1.046875 C 2.640625 -0.691406 2.53125 -0.421875 2.3125 -0.234375 C 2.101562 -0.0546875 1.828125 0.03125 1.484375 0.03125 C 1.148438 0.03125 0.875 -0.0546875 0.65625 -0.234375 C 0.445312 -0.421875 0.34375 -0.691406 0.34375 -1.046875 Z M 0.34375 -1.046875 "/></g></g></g><g fill="#a6a6a6" fill-opacity="1"><g transform="translate(14.696788, 25.238985)"><g><path d="M 0.65625 -1.3125 L 0.65625 0 L 0.34375 0 L 0.34375 -3.125 L 1.296875 -3.125 C 1.648438 -3.125 1.914062 -3.039062 2.09375 -2.875 C 2.269531 -2.707031 2.359375 -2.492188 2.359375 -2.234375 C 2.359375 -1.984375 2.285156 -1.773438 2.140625 -1.609375 C 2.003906 -1.453125 1.796875 -1.359375 1.515625 -1.328125 L 2.40625 0 L 2 0 L 1.140625 -1.3125 Z M 0.65625 -2.875 L 0.65625 -1.5625 L 1.296875 -1.5625 C 1.796875 -1.5625 2.046875 -1.78125 2.046875 -2.21875 C 2.046875 -2.65625 1.796875 -2.875 1.296875 -2.875 Z M 0.65625 -2.875 "/></g></g></g><g fill="#a6a6a6" fill-opacity="1"><g transform="translate(18.239605, 25.238985)"><g/></g></g><g fill="#a6a6a6" fill-opacity="1"><g transform="translate(20.411443, 25.238985)"><g><path d="M 2.09375 -2.875 C 2.269531 -2.707031 2.359375 -2.488281 2.359375 -2.21875 C 2.359375 -1.945312 2.269531 -1.726562 2.09375 -1.5625 C 1.914062 -1.394531 1.648438 -1.3125 1.296875 -1.3125 L 0.65625 -1.3125 L 0.65625 0 L 0.34375 0 L 0.34375 -3.125 L 1.296875 -3.125 C 1.648438 -3.125 1.914062 -3.039062 2.09375 -2.875 Z M 0.65625 -1.5625 L 1.296875 -1.5625 C 1.796875 -1.5625 2.046875 -1.78125 2.046875 -2.21875 C 2.046875 -2.65625 1.796875 -2.875 1.296875 -2.875 L 0.65625 -2.875 Z M 0.65625 -1.5625 "/></g></g></g><g fill="#a6a6a6" fill-opacity="1"><g transform="translate(23.768747, 25.238985)"><g><path d="M 1.9375 -3.125 L 1.9375 -2.875 L 0.65625 -2.875 L 0.65625 -1.703125 L 1.796875 -1.703125 L 1.796875 -1.453125 L 0.65625 -1.453125 L 0.65625 -0.25 L 1.9375 -0.25 L 1.9375 0 L 0.34375 0 L 0.34375 -3.125 Z M 1.9375 -3.125 "/></g></g></g><g fill="#a6a6a6" fill-opacity="1"><g transform="translate(26.7867, 25.238985)"><g><path d="M 0.65625 -1.3125 L 0.65625 0 L 0.34375 0 L 0.34375 -3.125 L 1.296875 -3.125 C 1.648438 -3.125 1.914062 -3.039062 2.09375 -2.875 C 2.269531 -2.707031 2.359375 -2.492188 2.359375 -2.234375 C 2.359375 -1.984375 2.285156 -1.773438 2.140625 -1.609375 C 2.003906 -1.453125 1.796875 -1.359375 1.515625 -1.328125 L 2.40625 0 L 2 0 L 1.140625 -1.3125 Z M 0.65625 -2.875 L 0.65625 -1.5625 L 1.296875 -1.5625 C 1.796875 -1.5625 2.046875 -1.78125 2.046875 -2.21875 C 2.046875 -2.65625 1.796875 -2.875 1.296875 -2.875 Z M 0.65625 -2.875 "/></g></g></g><g fill="#a6a6a6" fill-opacity="1"><g transform="translate(30.329517, 25.238985)"><g><path d="M 0.5625 -2.296875 C 0.5625 -2.171875 0.59375 -2.066406 0.65625 -1.984375 C 0.726562 -1.910156 0.8125 -1.851562 0.90625 -1.8125 C 1.007812 -1.78125 1.125 -1.75 1.25 -1.71875 C 1.375 -1.695312 1.5 -1.664062 1.625 -1.625 C 1.75 -1.59375 1.863281 -1.550781 1.96875 -1.5 C 2.070312 -1.445312 2.15625 -1.363281 2.21875 -1.25 C 2.28125 -1.144531 2.3125 -1.015625 2.3125 -0.859375 C 2.3125 -0.617188 2.222656 -0.410156 2.046875 -0.234375 C 1.867188 -0.0546875 1.625 0.03125 1.3125 0.03125 C 1.007812 0.03125 0.757812 -0.0351562 0.5625 -0.171875 C 0.363281 -0.316406 0.265625 -0.503906 0.265625 -0.734375 L 0.609375 -0.734375 C 0.617188 -0.585938 0.675781 -0.46875 0.78125 -0.375 C 0.894531 -0.28125 1.0625 -0.234375 1.28125 -0.234375 C 1.507812 -0.234375 1.6875 -0.289062 1.8125 -0.40625 C 1.945312 -0.519531 2.015625 -0.660156 2.015625 -0.828125 C 2.015625 -1.003906 1.953125 -1.132812 1.828125 -1.21875 C 1.710938 -1.300781 1.566406 -1.359375 1.390625 -1.390625 C 1.222656 -1.429688 1.054688 -1.472656 0.890625 -1.515625 C 0.722656 -1.554688 0.578125 -1.640625 0.453125 -1.765625 C 0.328125 -1.898438 0.265625 -2.085938 0.265625 -2.328125 C 0.265625 -2.566406 0.351562 -2.765625 0.53125 -2.921875 C 0.71875 -3.078125 0.957031 -3.15625 1.25 -3.15625 C 1.539062 -3.15625 1.769531 -3.085938 1.9375 -2.953125 C 2.113281 -2.816406 2.21875 -2.632812 2.25 -2.40625 L 1.90625 -2.40625 C 1.882812 -2.53125 1.816406 -2.640625 1.703125 -2.734375 C 1.585938 -2.835938 1.429688 -2.890625 1.234375 -2.890625 C 1.035156 -2.890625 0.875 -2.835938 0.75 -2.734375 C 0.625 -2.640625 0.5625 -2.492188 0.5625 -2.296875 Z M 0.5625 -2.296875 "/></g></g></g><g fill="#a6a6a6" fill-opacity="1"><g transform="translate(33.727546, 25.238985)"><g><path d="M 2.671875 -0.59375 C 2.910156 -0.84375 3.03125 -1.164062 3.03125 -1.5625 C 3.03125 -1.957031 2.910156 -2.273438 2.671875 -2.515625 C 2.429688 -2.753906 2.128906 -2.875 1.765625 -2.875 C 1.398438 -2.875 1.097656 -2.753906 0.859375 -2.515625 C 0.617188 -2.273438 0.5 -1.957031 0.5 -1.5625 C 0.5 -1.164062 0.617188 -0.84375 0.859375 -0.59375 C 1.097656 -0.351562 1.398438 -0.234375 1.765625 -0.234375 C 2.128906 -0.234375 2.429688 -0.351562 2.671875 -0.59375 Z M 0.640625 -0.421875 C 0.335938 -0.722656 0.1875 -1.101562 0.1875 -1.5625 C 0.1875 -2.019531 0.335938 -2.398438 0.640625 -2.703125 C 0.941406 -3.003906 1.316406 -3.15625 1.765625 -3.15625 C 2.222656 -3.15625 2.601562 -3.003906 2.90625 -2.703125 C 3.207031 -2.398438 3.359375 -2.019531 3.359375 -1.5625 C 3.359375 -1.101562 3.207031 -0.722656 2.90625 -0.421875 C 2.601562 -0.117188 2.222656 0.03125 1.765625 0.03125 C 1.316406 0.03125 0.941406 -0.117188 0.640625 -0.421875 Z M 0.640625 -0.421875 "/></g></g></g><g fill="#a6a6a6" fill-opacity="1"><g transform="translate(38.075757, 25.238985)"><g><path d="M 2.40625 -3.125 L 2.734375 -3.125 L 2.734375 0 L 2.40625 0 L 0.65625 -2.625 L 0.65625 0 L 0.34375 0 L 0.34375 -3.125 L 0.65625 -3.125 L 2.40625 -0.5 Z M 2.40625 -3.125 "/></g></g></g><g fill="#a6a6a6" fill-opacity="1"><g transform="translate(41.953399, 25.238985)"><g><path d="M 2.546875 0 L 2.28125 -0.734375 L 0.828125 -0.734375 L 0.5625 0 L 0.234375 0 L 1.390625 -3.125 L 1.71875 -3.125 L 2.859375 0 Z M 0.921875 -0.984375 L 2.1875 -0.984375 L 1.546875 -2.734375 Z M 0.921875 -0.984375 "/></g></g></g><g fill="#a6a6a6" fill-opacity="1"><g transform="translate(45.867242, 25.238985)"><g><path d="M 0.34375 -3.125 L 0.65625 -3.125 L 0.65625 -0.25 L 1.796875 -0.25 L 1.796875 0 L 0.34375 0 Z M 0.34375 -3.125 "/></g></g></g><g fill="#a6a6a6" fill-opacity="1"><g transform="translate(48.563945, 25.238985)"><g/></g></g><g fill="#a6a6a6" fill-opacity="1"><g transform="translate(50.735783, 25.238985)"><g><path d="M 0.34375 -3.125 L 1.390625 -3.125 C 1.710938 -3.125 1.957031 -3.046875 2.125 -2.890625 C 2.300781 -2.734375 2.390625 -2.535156 2.390625 -2.296875 C 2.390625 -1.941406 2.191406 -1.710938 1.796875 -1.609375 C 1.992188 -1.578125 2.148438 -1.484375 2.265625 -1.328125 C 2.390625 -1.179688 2.453125 -1.003906 2.453125 -0.796875 C 2.453125 -0.585938 2.359375 -0.398438 2.171875 -0.234375 C 1.992188 -0.078125 1.753906 0 1.453125 0 L 0.34375 0 Z M 0.65625 -2.875 L 0.65625 -1.734375 L 1.390625 -1.734375 C 1.609375 -1.734375 1.773438 -1.785156 1.890625 -1.890625 C 2.003906 -1.992188 2.0625 -2.128906 2.0625 -2.296875 C 2.0625 -2.472656 2.003906 -2.613281 1.890625 -2.71875 C 1.773438 -2.820312 1.609375 -2.875 1.390625 -2.875 Z M 0.65625 -0.25 L 1.4375 -0.25 C 1.664062 -0.25 1.84375 -0.300781 1.96875 -0.40625 C 2.09375 -0.519531 2.15625 -0.671875 2.15625 -0.859375 C 2.15625 -1.054688 2.082031 -1.207031 1.9375 -1.3125 C 1.800781 -1.425781 1.625 -1.484375 1.40625 -1.484375 L 0.65625 -1.484375 Z M 0.65625 -0.25 "/></g></g></g><g fill="#a6a6a6" fill-opacity="1"><g transform="translate(54.242401, 25.238985)"><g><path d="M 0.34375 -1.046875 L 0.34375 -3.125 L 0.65625 -3.125 L 0.65625 -1.046875 C 0.65625 -0.773438 0.726562 -0.570312 0.875 -0.4375 C 1.03125 -0.300781 1.238281 -0.234375 1.5 -0.234375 C 1.757812 -0.234375 1.960938 -0.300781 2.109375 -0.4375 C 2.253906 -0.570312 2.328125 -0.773438 2.328125 -1.046875 L 2.328125 -3.125 L 2.640625 -3.125 L 2.640625 -1.046875 C 2.640625 -0.691406 2.53125 -0.421875 2.3125 -0.234375 C 2.101562 -0.0546875 1.828125 0.03125 1.484375 0.03125 C 1.148438 0.03125 0.875 -0.0546875 0.65625 -0.234375 C 0.445312 -0.421875 0.34375 -0.691406 0.34375 -1.046875 Z M 0.34375 -1.046875 "/></g></g></g><g fill="#a6a6a6" fill-opacity="1"><g transform="translate(58.034077, 25.238985)"><g><path d="M 0.65625 -0.25 L 1.296875 -0.25 C 1.722656 -0.25 2.046875 -0.359375 2.265625 -0.578125 C 2.484375 -0.804688 2.59375 -1.125 2.59375 -1.53125 C 2.59375 -1.945312 2.484375 -2.269531 2.265625 -2.5 C 2.046875 -2.726562 1.722656 -2.84375 1.296875 -2.84375 L 0.65625 -2.84375 Z M 1.296875 -3.125 C 1.804688 -3.125 2.203125 -2.984375 2.484375 -2.703125 C 2.765625 -2.421875 2.90625 -2.03125 2.90625 -1.53125 C 2.90625 -1.039062 2.765625 -0.660156 2.484375 -0.390625 C 2.203125 -0.128906 1.804688 0 1.296875 0 L 0.34375 0 L 0.34375 -3.125 Z M 1.296875 -3.125 "/></g></g></g><g fill="#a6a6a6" fill-opacity="1"><g transform="translate(61.947919, 25.238985)"><g><path d="M 0.640625 -0.421875 C 0.335938 -0.722656 0.1875 -1.101562 0.1875 -1.5625 C 0.1875 -2.019531 0.335938 -2.398438 0.640625 -2.703125 C 0.941406 -3.003906 1.316406 -3.15625 1.765625 -3.15625 C 2.085938 -3.15625 2.375 -3.082031 2.625 -2.9375 C 2.875 -2.789062 3.0625 -2.582031 3.1875 -2.3125 L 2.8125 -2.3125 C 2.707031 -2.488281 2.5625 -2.625 2.375 -2.71875 C 2.195312 -2.820312 1.992188 -2.875 1.765625 -2.875 C 1.398438 -2.875 1.097656 -2.753906 0.859375 -2.515625 C 0.617188 -2.273438 0.5 -1.957031 0.5 -1.5625 C 0.5 -1.164062 0.617188 -0.847656 0.859375 -0.609375 C 1.097656 -0.367188 1.398438 -0.25 1.765625 -0.25 C 2.128906 -0.25 2.421875 -0.351562 2.640625 -0.5625 C 2.867188 -0.769531 3 -1.054688 3.03125 -1.421875 L 1.625 -1.421875 L 1.625 -1.6875 L 3.359375 -1.6875 L 3.359375 -1.421875 C 3.316406 -0.992188 3.144531 -0.644531 2.84375 -0.375 C 2.550781 -0.101562 2.1875 0.03125 1.75 0.03125 C 1.3125 0.03125 0.941406 -0.117188 0.640625 -0.421875 Z M 0.640625 -0.421875 "/></g></g></g><g fill="#a6a6a6" fill-opacity="1"><g transform="translate(66.291603, 25.238985)"><g><path d="M 1.9375 -3.125 L 1.9375 -2.875 L 0.65625 -2.875 L 0.65625 -1.703125 L 1.796875 -1.703125 L 1.796875 -1.453125 L 0.65625 -1.453125 L 0.65625 -0.25 L 1.9375 -0.25 L 1.9375 0 L 0.34375 0 L 0.34375 -3.125 Z M 1.9375 -3.125 "/></g></g></g><g fill="#a6a6a6" fill-opacity="1"><g transform="translate(69.309557, 25.238985)"><g><path d="M 0.21875 -2.875 L 0.21875 -3.125 L 2.171875 -3.125 L 2.171875 -2.875 L 1.359375 -2.875 L 1.359375 0 L 1.046875 0 L 1.046875 -2.875 Z M 0.21875 -2.875 "/></g></g></g><g fill="#a6a6a6" fill-opacity="1"><g transform="translate(25.43474, 31.271844)"><g><path d="M 0.21875 -2.875 L 0.21875 -3.125 L 2.171875 -3.125 L 2.171875 -2.875 L 1.359375 -2.875 L 1.359375 0 L 1.046875 0 L 1.046875 -2.875 Z M 0.21875 -2.875 "/></g></g></g><g fill="#a6a6a6" fill-opacity="1"><g transform="translate(28.642727, 31.271844)"><g><path d="M 0.65625 -1.3125 L 0.65625 0 L 0.34375 0 L 0.34375 -3.125 L 1.296875 -3.125 C 1.648438 -3.125 1.914062 -3.039062 2.09375 -2.875 C 2.269531 -2.707031 2.359375 -2.492188 2.359375 -2.234375 C 2.359375 -1.984375 2.285156 -1.773438 2.140625 -1.609375 C 2.003906 -1.453125 1.796875 -1.359375 1.515625 -1.328125 L 2.40625 0 L 2 0 L 1.140625 -1.3125 Z M 0.65625 -2.875 L 0.65625 -1.5625 L 1.296875 -1.5625 C 1.796875 -1.5625 2.046875 -1.78125 2.046875 -2.21875 C 2.046875 -2.65625 1.796875 -2.875 1.296875 -2.875 Z M 0.65625 -2.875 "/></g></g></g><g fill="#a6a6a6" fill-opacity="1"><g transform="translate(32.185544, 31.271844)"><g><path d="M 2.546875 0 L 2.28125 -0.734375 L 0.828125 -0.734375 L 0.5625 0 L 0.234375 0 L 1.390625 -3.125 L 1.71875 -3.125 L 2.859375 0 Z M 0.921875 -0.984375 L 2.1875 -0.984375 L 1.546875 -2.734375 Z M 0.921875 -0.984375 "/></g></g></g><g fill="#a6a6a6" fill-opacity="1"><g transform="translate(36.099385, 31.271844)"><g><path d="M 0.640625 -0.421875 C 0.335938 -0.722656 0.1875 -1.101562 0.1875 -1.5625 C 0.1875 -2.019531 0.335938 -2.398438 0.640625 -2.703125 C 0.941406 -3.003906 1.316406 -3.15625 1.765625 -3.15625 C 2.085938 -3.15625 2.375 -3.082031 2.625 -2.9375 C 2.875 -2.789062 3.0625 -2.582031 3.1875 -2.3125 L 2.8125 -2.3125 C 2.707031 -2.488281 2.5625 -2.625 2.375 -2.71875 C 2.195312 -2.820312 1.992188 -2.875 1.765625 -2.875 C 1.398438 -2.875 1.097656 -2.753906 0.859375 -2.515625 C 0.617188 -2.273438 0.5 -1.957031 0.5 -1.5625 C 0.5 -1.164062 0.617188 -0.847656 0.859375 -0.609375 C 1.097656 -0.367188 1.398438 -0.25 1.765625 -0.25 C 1.992188 -0.25 2.195312 -0.296875 2.375 -0.390625 C 2.5625 -0.492188 2.707031 -0.640625 2.8125 -0.828125 L 3.1875 -0.828125 C 3.0625 -0.546875 2.875 -0.332031 2.625 -0.1875 C 2.375 -0.0390625 2.085938 0.03125 1.765625 0.03125 C 1.316406 0.03125 0.941406 -0.117188 0.640625 -0.421875 Z M 0.640625 -0.421875 "/></g></g></g><g fill="#a6a6a6" fill-opacity="1"><g transform="translate(40.443067, 31.271844)"><g><path d="M 0.65625 0 L 0.34375 0 L 0.34375 -3.125 L 0.65625 -3.125 L 0.65625 -1.65625 L 2.015625 -3.125 L 2.421875 -3.125 L 0.90625 -1.546875 L 2.421875 0 L 2 0 L 0.65625 -1.40625 Z M 0.65625 0 "/></g></g></g><g fill="#a6a6a6" fill-opacity="1"><g transform="translate(43.813944, 31.271844)"><g><path d="M 1.9375 -3.125 L 1.9375 -2.875 L 0.65625 -2.875 L 0.65625 -1.703125 L 1.796875 -1.703125 L 1.796875 -1.453125 L 0.65625 -1.453125 L 0.65625 -0.25 L 1.9375 -0.25 L 1.9375 0 L 0.34375 0 L 0.34375 -3.125 Z M 1.9375 -3.125 "/></g></g></g><g fill="#a6a6a6" fill-opacity="1"><g transform="translate(46.831897, 31.271844)"><g><path d="M 0.65625 -1.3125 L 0.65625 0 L 0.34375 0 L 0.34375 -3.125 L 1.296875 -3.125 C 1.648438 -3.125 1.914062 -3.039062 2.09375 -2.875 C 2.269531 -2.707031 2.359375 -2.492188 2.359375 -2.234375 C 2.359375 -1.984375 2.285156 -1.773438 2.140625 -1.609375 C 2.003906 -1.453125 1.796875 -1.359375 1.515625 -1.328125 L 2.40625 0 L 2 0 L 1.140625 -1.3125 Z M 0.65625 -2.875 L 0.65625 -1.5625 L 1.296875 -1.5625 C 1.796875 -1.5625 2.046875 -1.78125 2.046875 -2.21875 C 2.046875 -2.65625 1.796875 -2.875 1.296875 -2.875 Z M 0.65625 -2.875 "/></g></g></g></svg>